<?xml version="1.0" encoding="UTF-8"?> <svg xmlns="http://www.w3.org/2000/svg" width="50" height="50" viewBox="0 0 50 50" fill="none"> <rect width="50" height="50" rx="10" fill="white"></rect> <path d="M34.2141 16.1129L26.8891 12.8504C25.8141 12.3754 24.1891 12.3754 23.1141 12.8504L15.7891 16.1129C13.9391 16.9379 13.6641 18.0629 13.6641 18.6629C13.6641 19.2629 13.9391 20.3879 15.7891 21.2129L23.1141 24.4754C23.6516 24.7129 24.3266 24.8379 25.0016 24.8379C25.6766 24.8379 26.3516 24.7129 26.8891 24.4754L34.2141 21.2129C36.0641 20.3879 36.3391 19.2629 36.3391 18.6629C36.3391 18.0629 36.0766 16.9379 34.2141 16.1129Z" fill="#5289F3"></path> <path d="M24.9984 31.3C24.5234 31.3 24.0484 31.2 23.6109 31.0125L15.1859 27.2625C13.8984 26.6875 12.8984 25.15 12.8984 23.7375C12.8984 23.225 13.3109 22.8125 13.8234 22.8125C14.3359 22.8125 14.7484 23.225 14.7484 23.7375C14.7484 24.4125 15.3109 25.2875 15.9359 25.5625L24.3609 29.3125C24.7609 29.4875 25.2234 29.4875 25.6234 29.3125L34.0484 25.5625C34.6734 25.2875 35.2359 24.425 35.2359 23.7375C35.2359 23.225 35.6484 22.8125 36.1609 22.8125C36.6734 22.8125 37.0859 23.225 37.0859 23.7375C37.0859 25.1375 36.0859 26.6875 34.7984 27.2625L26.3734 31.0125C25.9484 31.2 25.4734 31.3 24.9984 31.3Z" fill="#5289F3"></path> <path d="M24.9984 37.5002C24.5234 37.5002 24.0484 37.4002 23.6109 37.2127L15.1859 33.4627C13.7984 32.8502 12.8984 31.4627 12.8984 29.9377C12.8984 29.4252 13.3109 29.0127 13.8234 29.0127C14.3359 29.0127 14.7484 29.4252 14.7484 29.9377C14.7484 30.7252 15.2109 31.4377 15.9359 31.7627L24.3609 35.5127C24.7609 35.6877 25.2234 35.6877 25.6234 35.5127L34.0484 31.7627C34.7609 31.4502 35.2359 30.7252 35.2359 29.9377C35.2359 29.4252 35.6484 29.0127 36.1609 29.0127C36.6734 29.0127 37.0859 29.4252 37.0859 29.9377C37.0859 31.4627 36.1859 32.8377 34.7984 33.4627L26.3734 37.2127C25.9484 37.4002 25.4734 37.5002 24.9984 37.5002Z" fill="#5289F3"></path> </svg> 