<?xml version="1.0" encoding="UTF-8"?> <svg xmlns="http://www.w3.org/2000/svg" width="50" height="50" viewBox="0 0 50 50" fill="none"> <rect width="50" height="50" rx="10" fill="white"></rect> <path d="M25 37.5C31.9036 37.5 37.5 31.9036 37.5 25C37.5 18.0964 31.9036 12.5 25 12.5C18.0964 12.5 12.5 18.0964 12.5 25C12.5 31.9036 18.0964 37.5 25 37.5Z" stroke="#5289F3" stroke-width="3" stroke-linecap="round" stroke-linejoin="round"></path> <path d="M25.2109 31.3809V31.4038" stroke="#5289F3" stroke-width="3" stroke-linecap="round" stroke-linejoin="round"></path> <path d="M22.5 19.9554C22.8868 19.5167 23.3814 19.1794 23.9383 18.9744C24.4951 18.7694 25.0962 18.7034 25.6863 18.7824C26.2764 18.8615 26.8365 19.083 27.315 19.4267C27.7934 19.7703 28.1749 20.225 28.4242 20.7489C28.6735 21.2728 28.7826 21.849 28.7416 22.4244C28.7005 22.9999 28.5105 23.5561 28.1892 24.0418C27.8679 24.5275 27.4254 24.9271 26.9027 25.2037C26.38 25.4804 25.7938 25.6253 25.1981 25.625V27.5" stroke="#5289F3" stroke-width="3" stroke-linecap="round" stroke-linejoin="round"></path> </svg> 