<?xml version="1.0" encoding="UTF-8"?> <svg xmlns="http://www.w3.org/2000/svg" width="50" height="50" viewBox="0 0 50 50" fill="none"> <rect width="50" height="50" rx="10" fill="white"></rect> <path d="M30 12.5H20C16.55 12.5 13.75 15.3 13.75 18.75V31.25C13.75 34.7 16.55 37.5 20 37.5H30C33.45 37.5 36.25 34.7 36.25 31.25V18.75C36.25 15.3 33.45 12.5 30 12.5ZM21.075 33.2875C20.8375 33.525 20.525 33.65 20.2 33.65C19.8625 33.65 19.55 33.525 19.3125 33.2875C19.075 33.05 18.9375 32.7375 18.9375 32.4C18.9375 32.075 19.075 31.75 19.3125 31.5125C19.425 31.4 19.5625 31.3125 19.7125 31.25C20.025 31.125 20.3625 31.125 20.675 31.25C20.75 31.275 20.825 31.3125 20.8875 31.3625C20.9625 31.4 21.025 31.4625 21.075 31.5125C21.3125 31.75 21.45 32.075 21.45 32.4C21.45 32.7375 21.3125 33.05 21.075 33.2875ZM18.9375 27.4C18.9375 27.2375 18.975 27.075 19.0375 26.925C19.1 26.7625 19.1875 26.6375 19.3125 26.5125C19.6 26.225 20.0375 26.0875 20.4375 26.175C20.5125 26.1875 20.6 26.2125 20.675 26.25C20.75 26.275 20.825 26.3125 20.8875 26.3625C20.9625 26.4 21.025 26.4625 21.075 26.5125C21.1875 26.6375 21.2875 26.7625 21.35 26.925C21.4125 27.075 21.4375 27.2375 21.4375 27.4C21.4375 27.7375 21.3125 28.05 21.075 28.2875C20.8375 28.525 20.525 28.65 20.2 28.65C20.025 28.65 19.8625 28.6125 19.7125 28.55C19.5625 28.4875 19.425 28.4 19.3125 28.2875C19.075 28.05 18.9375 27.7375 18.9375 27.4ZM26.075 33.2875C25.9625 33.4 25.825 33.4875 25.675 33.55C25.525 33.6125 25.3625 33.65 25.1875 33.65C24.8625 33.65 24.55 33.525 24.3125 33.2875C24.075 33.05 23.9375 32.7375 23.9375 32.4C23.9375 32.3125 23.95 32.2375 23.9625 32.15C23.9875 32.075 24.0125 32 24.0375 31.925C24.075 31.85 24.1125 31.775 24.15 31.7C24.2 31.6375 24.25 31.575 24.3125 31.5125C24.425 31.4 24.5625 31.3125 24.7125 31.25C25.175 31.0625 25.725 31.1625 26.075 31.5125C26.3125 31.75 26.4375 32.075 26.4375 32.4C26.4375 32.7375 26.3125 33.05 26.075 33.2875ZM26.075 28.2875C25.8375 28.525 25.525 28.65 25.1875 28.65C24.8625 28.65 24.55 28.525 24.3125 28.2875C24.075 28.05 23.9375 27.7375 23.9375 27.4C23.9375 27.075 24.075 26.75 24.3125 26.5125C24.775 26.05 25.6125 26.05 26.075 26.5125C26.1875 26.6375 26.2875 26.7625 26.35 26.925C26.4125 27.075 26.4375 27.2375 26.4375 27.4C26.4375 27.7375 26.3125 28.05 26.075 28.2875ZM21.25 23.075C19.9625 23.075 18.9 22.025 18.9 20.725V19.475C18.9 18.1875 19.95 17.125 21.25 17.125H28.75C30.0375 17.125 31.1 18.175 31.1 19.475V20.725C31.1 22.0125 30.05 23.075 28.75 23.075H21.25ZM31.075 33.2875C30.8375 33.525 30.525 33.65 30.1875 33.65C30.025 33.65 29.8625 33.6125 29.7125 33.55C29.5625 33.4875 29.425 33.4 29.3125 33.2875C29.075 33.05 28.95 32.7375 28.95 32.4C28.95 32.075 29.075 31.75 29.3125 31.5125C29.65 31.1625 30.2125 31.0625 30.675 31.25C30.825 31.3125 30.9625 31.4 31.075 31.5125C31.3125 31.75 31.4375 32.075 31.4375 32.4C31.4375 32.7375 31.3125 33.05 31.075 33.2875ZM31.35 27.875C31.2875 28.025 31.2 28.1625 31.075 28.2875C30.8375 28.525 30.525 28.65 30.1875 28.65C29.8625 28.65 29.55 28.525 29.3125 28.2875C29.075 28.05 28.9375 27.7375 28.9375 27.4C28.9375 27.075 29.075 26.75 29.3125 26.5125C29.775 26.05 30.6125 26.05 31.075 26.5125C31.3125 26.75 31.45 27.075 31.45 27.4C31.45 27.5625 31.4125 27.725 31.35 27.875Z" fill="#5289F3"></path> </svg> 