<?xml version="1.0" encoding="UTF-8"?> <svg xmlns="http://www.w3.org/2000/svg" width="51" height="50" viewBox="0 0 51 50" fill="none"> <rect x="0.5" width="50" height="50" rx="10" fill="#2DC36A"></rect> <path d="M26.5095 15.9198L32.4095 18.5398C34.1095 19.2898 34.1095 20.5298 32.4095 21.2798L26.5095 23.8998C25.8395 24.1998 24.7395 24.1998 24.0695 23.8998L18.1695 21.2798C16.4695 20.5298 16.4695 19.2898 18.1695 18.5398L24.0695 15.9198C24.7395 15.6198 25.8395 15.6198 26.5095 15.9198Z" stroke="white" stroke-width="1.5" stroke-linecap="round" stroke-linejoin="round"></path> <path d="M16.5 24C16.5 24.84 17.13 25.81 17.9 26.15L24.69 29.17C25.21 29.4 25.8 29.4 26.31 29.17L33.1 26.15C33.87 25.81 34.5 24.84 34.5 24" stroke="white" stroke-width="1.5" stroke-linecap="round" stroke-linejoin="round"></path> <path d="M16.5 29C16.5 29.93 17.05 30.77 17.9 31.15L24.69 34.17C25.21 34.4 25.8 34.4 26.31 34.17L33.1 31.15C33.95 30.77 34.5 29.93 34.5 29" stroke="white" stroke-width="1.5" stroke-linecap="round" stroke-linejoin="round"></path> </svg> 