<?xml version="1.0" encoding="UTF-8"?> <svg xmlns="http://www.w3.org/2000/svg" width="51" height="50" viewBox="0 0 51 50" fill="none"> <rect x="0.5" width="50" height="50" rx="10" fill="#5289F3"></rect> <path d="M35.47 31.33C35.47 31.69 35.39 32.06 35.22 32.42C35.05 32.78 34.83 33.12 34.54 33.44C34.05 33.98 33.51 34.37 32.9 34.62C32.3 34.87 31.65 35 30.95 35C29.93 35 28.84 34.76 27.69 34.27C26.54 33.78 25.39 33.12 24.25 32.29C23.1 31.45 22.01 30.52 20.97 29.49C19.94 28.45 19.01 27.36 18.18 26.22C17.36 25.08 16.7 23.94 16.22 22.81C15.74 21.67 15.5 20.58 15.5 19.54C15.5 18.86 15.62 18.21 15.86 17.61C16.1 17 16.48 16.44 17.01 15.94C17.65 15.31 18.35 15 19.09 15C19.37 15 19.65 15.06 19.9 15.18C20.16 15.3 20.39 15.48 20.57 15.74L22.89 19.01C23.07 19.26 23.2 19.49 23.29 19.71C23.38 19.92 23.43 20.13 23.43 20.32C23.43 20.56 23.36 20.8 23.22 21.03C23.09 21.26 22.9 21.5 22.66 21.74L21.9 22.53C21.79 22.64 21.74 22.77 21.74 22.93C21.74 23.01 21.75 23.08 21.77 23.16C21.8 23.24 21.83 23.3 21.85 23.36C22.03 23.69 22.34 24.12 22.78 24.64C23.23 25.16 23.71 25.69 24.23 26.22C24.77 26.75 25.29 27.24 25.82 27.69C26.34 28.13 26.77 28.43 27.11 28.61C27.16 28.63 27.22 28.66 27.29 28.69C27.37 28.72 27.45 28.73 27.54 28.73C27.71 28.73 27.84 28.67 27.95 28.56L28.71 27.81C28.96 27.56 29.2 27.37 29.43 27.25C29.66 27.11 29.89 27.04 30.14 27.04C30.33 27.04 30.53 27.08 30.75 27.17C30.97 27.26 31.2 27.39 31.45 27.56L34.76 29.91C35.02 30.09 35.2 30.3 35.31 30.55C35.41 30.8 35.47 31.05 35.47 31.33Z" stroke="white" stroke-width="1.5" stroke-miterlimit="10"></path> <path d="M33.4992 17H28.6992M33.4992 17V21.8V17Z" stroke="white" stroke-width="1.5" stroke-linecap="round" stroke-linejoin="round"></path> </svg> 