<?xml version="1.0" encoding="UTF-8"?> <svg xmlns="http://www.w3.org/2000/svg" width="51" height="50" viewBox="0 0 51 50" fill="none"> <rect x="0.5" width="50" height="50" rx="10" fill="#EE3F58"></rect> <path d="M32.8009 20.92V26.07C32.8009 29.15 31.0409 30.47 28.4009 30.47H19.6109C19.1609 30.47 18.7309 30.43 18.3309 30.34C18.0809 30.3 17.8409 30.23 17.6209 30.15C16.1209 29.59 15.2109 28.29 15.2109 26.07V20.92C15.2109 17.84 16.9709 16.52 19.6109 16.52H28.4009C30.6409 16.52 32.2509 17.47 32.6809 19.64C32.7509 20.04 32.8009 20.45 32.8009 20.92Z" stroke="white" stroke-width="1.5" stroke-miterlimit="10" stroke-linecap="round" stroke-linejoin="round"></path> <path d="M35.802 23.9201V29.0701C35.802 32.1501 34.042 33.4701 31.402 33.4701H22.612C21.872 33.4701 21.202 33.3701 20.622 33.1501C19.432 32.7101 18.622 31.8001 18.332 30.3401C18.732 30.4301 19.162 30.4701 19.612 30.4701H28.402C31.042 30.4701 32.802 29.1501 32.802 26.0701V20.9201C32.802 20.4501 32.762 20.0301 32.682 19.6401C34.582 20.0401 35.802 21.3801 35.802 23.9201Z" stroke="white" stroke-width="1.5" stroke-miterlimit="10" stroke-linecap="round" stroke-linejoin="round"></path> <path d="M23.9994 26.1399C25.4574 26.1399 26.6394 24.9579 26.6394 23.4999C26.6394 22.0418 25.4574 20.8599 23.9994 20.8599C22.5414 20.8599 21.3594 22.0418 21.3594 23.4999C21.3594 24.9579 22.5414 26.1399 23.9994 26.1399Z" stroke="white" stroke-width="1.5" stroke-miterlimit="10" stroke-linecap="round" stroke-linejoin="round"></path> <path d="M18.2812 21.2998V25.6998" stroke="white" stroke-width="1.5" stroke-miterlimit="10" stroke-linecap="round" stroke-linejoin="round"></path> <path d="M29.7227 21.3003V25.7003" stroke="white" stroke-width="1.5" stroke-miterlimit="10" stroke-linecap="round" stroke-linejoin="round"></path> </svg> 