<?xml version="1.0" encoding="UTF-8"?> <svg xmlns="http://www.w3.org/2000/svg" width="141" height="60" viewBox="0 0 141 60" fill="none"> <path fill-rule="evenodd" clip-rule="evenodd" d="M41.5564 52.4695C37.7479 55.3353 33.4328 58.121 29.7719 59.3077C26.1103 58.121 21.7945 55.3338 17.986 52.4674C11.7483 47.7726 7.75958 43.4376 6.8724 35.6998L3.9366 10.1006C3.83023 9.17347 4.52058 8.34943 5.4548 8.27662C19.2307 7.19809 26.2775 2.59777 28.7371 0.597882C29.3385 0.108364 30.2047 0.108364 30.8067 0.597882C33.2664 2.59849 40.3132 7.19809 54.0891 8.27662C55.0233 8.34943 55.7136 9.17347 55.6073 10.1006L52.6707 35.7019C51.7836 43.4398 47.7941 47.7755 41.5564 52.4695ZM30.7735 47.0153C39.746 47.0153 47.0196 39.7417 47.0196 30.7692C47.0196 21.7967 39.746 14.523 30.7735 14.523C21.801 14.523 14.5273 21.7967 14.5273 30.7692C14.5273 39.7417 21.801 47.0153 30.7735 47.0153Z" fill="#5289F3"></path> <path fill-rule="evenodd" clip-rule="evenodd" d="M29.594 23.0616C28.9814 23.244 28.5362 23.8128 28.5362 24.4816C28.5362 24.8272 28.6555 25.1464 28.855 25.3992C28.8417 25.4152 28.8283 25.4312 28.8157 25.4472L26.7527 21.9808C26.6915 21.8784 26.5886 21.8088 26.4724 21.792L23.8047 21.404C23.5903 21.3728 23.3908 21.5248 23.3602 21.7432C23.3296 21.9624 23.4796 22.1648 23.694 22.196L26.1771 22.5576L28.3713 26.2424C28.3501 26.296 28.3296 26.3512 28.31 26.4072C26.4967 25.9048 23.6712 25.2096 21.6514 25.0112C20.6431 24.912 19.8208 24.9504 19.3748 25.1544C18.9554 25.3456 18.7324 25.6344 18.6429 25.964C18.5259 26.3952 18.6609 26.9384 19.0033 27.4816C19.44 28.1752 20.2056 28.8872 20.9792 29.3408C21.5289 29.6632 22.0857 29.8512 22.5388 29.8448C24.3175 29.8168 26.4221 29.4328 28.0564 28.7968C28.0579 28.8096 28.0595 28.8224 28.0611 28.8352L24.6395 31.4816C24.5413 31.5568 24.484 31.6752 24.484 31.8V33.9856L23.4812 34.6672C23.3005 34.7896 23.2518 35.0384 23.372 35.2216C23.4921 35.4056 23.7364 35.4552 23.9162 35.3328L25.0942 34.5328C25.2041 34.4584 25.2693 34.3336 25.2693 34.2V31.9984L28.032 29.8624L26.8878 32.0088C26.8619 32.0568 26.8462 32.1096 26.8415 32.164L26.4598 36.444L24.963 38.3504C24.8272 38.5224 24.8547 38.7744 25.0243 38.912C25.1931 39.0504 25.4405 39.0224 25.5756 38.8496L27.1462 36.8496C27.1949 36.7888 27.2239 36.7144 27.231 36.636L27.6166 32.3184L28.4836 30.692C28.5024 30.956 28.4969 31.2216 28.4671 31.4856C28.4663 31.488 28.4663 31.4904 28.4663 31.492C28.4333 31.8224 28.416 32.1912 28.416 32.6C28.416 33.9576 28.2786 35.4568 28.5103 36.44C28.7097 37.284 29.155 37.8 29.9866 37.8C30.8183 37.8 31.2636 37.284 31.4622 36.44C31.6939 35.4568 31.5573 33.9576 31.5573 32.6C31.5573 32.224 31.5392 31.8848 31.5769 31.5728C31.5808 31.5408 31.5808 31.5088 31.5777 31.4776C31.5525 31.2592 31.5447 31.04 31.5541 30.8224L32.3512 32.3184L32.7368 36.636C32.7439 36.7144 32.7729 36.7888 32.8208 36.8496L34.3914 38.8496C34.5273 39.0224 34.7747 39.0504 34.9435 38.912C35.1131 38.7744 35.1406 38.5224 35.0048 38.3504L33.508 36.444L33.1263 32.164C33.1216 32.1096 33.1059 32.0568 33.08 32.0088L31.9358 29.8624L34.6985 31.9984V34.2C34.6985 34.3336 34.7637 34.4584 34.8736 34.5328L36.0516 35.3328C36.2314 35.4552 36.4756 35.4056 36.5958 35.2216C36.7159 35.0384 36.6673 34.7896 36.4866 34.6672L35.4838 33.9856V31.8C35.4838 31.6752 35.4265 31.5568 35.3283 31.4816L31.9161 28.8424C31.9177 28.8248 31.9201 28.8064 31.9216 28.7888C33.5606 29.4288 35.6762 29.8168 37.4643 29.8448C37.9175 29.8512 38.4742 29.6632 39.024 29.3408C39.7975 28.8872 40.5632 28.1752 40.9998 27.4816C41.3422 26.9384 41.4773 26.3952 41.3603 25.964C41.2707 25.6344 41.0477 25.3456 40.6283 25.1544C40.1807 24.9496 39.3546 24.912 38.3415 25.012C36.3123 25.2128 33.4742 25.9128 31.6656 26.4144C31.6444 26.3536 31.6224 26.2952 31.5997 26.2376L33.7907 22.5576L36.2738 22.196C36.4882 22.1648 36.6374 21.9624 36.6068 21.7432C36.5762 21.5248 36.3775 21.3728 36.1631 21.404L33.4954 21.792C33.3792 21.8088 33.2763 21.8784 33.215 21.9808L31.3711 25.0784C31.452 24.896 31.4968 24.6936 31.4968 24.4816C31.4968 23.7912 31.0225 23.2072 30.3793 23.0448V21.4C30.3793 21.1792 30.2034 21 29.9866 21C29.7699 21 29.594 21.1792 29.594 21.4V23.0616Z" fill="black"></path> <path d="M30.0008 46.2C38.9108 46.2 46.2008 38.91 46.2008 30C46.2008 21.09 38.9108 13.8 30.0008 13.8C21.0908 13.8 13.8008 21.09 13.8008 30C13.8008 38.91 21.0908 46.2 30.0008 46.2Z" stroke="#25498C" stroke-width="3.07692" stroke-linecap="round" stroke-linejoin="round"></path> <path d="M18.6602 41.34L41.3402 18.66" stroke="#25498C" stroke-width="3.07692" stroke-linejoin="round"></path> <path d="M80.3503 14.655V25.5H78.5728V18.495C78.5728 18.215 78.5878 17.9125 78.6178 17.5875L75.3403 23.745C75.1853 24.04 74.9478 24.1875 74.6278 24.1875H74.3428C74.0228 24.1875 73.7853 24.04 73.6303 23.745L70.3153 17.565C70.3303 17.73 70.3428 17.8925 70.3528 18.0525C70.3628 18.2125 70.3678 18.36 70.3678 18.495V25.5H68.5903V14.655H70.1128C70.2028 14.655 70.2803 14.6575 70.3453 14.6625C70.4103 14.6675 70.4678 14.68 70.5178 14.7C70.5728 14.72 70.6203 14.7525 70.6603 14.7975C70.7053 14.8425 70.7478 14.9025 70.7878 14.9775L74.0353 21C74.1203 21.16 74.1978 21.325 74.2678 21.495C74.3428 21.665 74.4153 21.84 74.4853 22.02C74.5553 21.835 74.6278 21.6575 74.7028 21.4875C74.7778 21.3125 74.8578 21.145 74.9428 20.985L78.1453 14.9775C78.1853 14.9025 78.2278 14.8425 78.2728 14.7975C78.3178 14.7525 78.3653 14.72 78.4153 14.7C78.4703 14.68 78.5303 14.6675 78.5953 14.6625C78.6603 14.6575 78.7378 14.655 78.8278 14.655H80.3503ZM85.6481 17.685C86.2181 17.685 86.7356 17.7775 87.2006 17.9625C87.6706 18.1475 88.0706 18.41 88.4006 18.75C88.7356 19.09 88.9931 19.505 89.1731 19.995C89.3531 20.485 89.4431 21.0325 89.4431 21.6375C89.4431 22.2475 89.3531 22.7975 89.1731 23.2875C88.9931 23.7775 88.7356 24.195 88.4006 24.54C88.0706 24.885 87.6706 25.15 87.2006 25.335C86.7356 25.52 86.2181 25.6125 85.6481 25.6125C85.0731 25.6125 84.5506 25.52 84.0806 25.335C83.6106 25.15 83.2081 24.885 82.8731 24.54C82.5431 24.195 82.2856 23.7775 82.1006 23.2875C81.9206 22.7975 81.8306 22.2475 81.8306 21.6375C81.8306 21.0325 81.9206 20.485 82.1006 19.995C82.2856 19.505 82.5431 19.09 82.8731 18.75C83.2081 18.41 83.6106 18.1475 84.0806 17.9625C84.5506 17.7775 85.0731 17.685 85.6481 17.685ZM85.6481 24.1875C86.2881 24.1875 86.7606 23.9725 87.0656 23.5425C87.3756 23.1125 87.5306 22.4825 87.5306 21.6525C87.5306 20.8225 87.3756 20.19 87.0656 19.755C86.7606 19.32 86.2881 19.1025 85.6481 19.1025C84.9981 19.1025 84.5156 19.3225 84.2006 19.7625C83.8906 20.1975 83.7356 20.8275 83.7356 21.6525C83.7356 22.4775 83.8906 23.1075 84.2006 23.5425C84.5156 23.9725 84.9981 24.1875 85.6481 24.1875ZM96.3689 19.4325C96.3139 19.5025 96.2589 19.5575 96.2039 19.5975C96.1539 19.6375 96.0789 19.6575 95.9789 19.6575C95.8839 19.6575 95.7914 19.63 95.7014 19.575C95.6114 19.515 95.5039 19.45 95.3789 19.38C95.2539 19.305 95.1039 19.24 94.9289 19.185C94.7589 19.125 94.5464 19.095 94.2914 19.095C93.9664 19.095 93.6814 19.155 93.4364 19.275C93.1914 19.39 92.9864 19.5575 92.8214 19.7775C92.6614 19.9975 92.5414 20.265 92.4614 20.58C92.3814 20.89 92.3414 21.2425 92.3414 21.6375C92.3414 22.0475 92.3839 22.4125 92.4689 22.7325C92.5589 23.0525 92.6864 23.3225 92.8514 23.5425C93.0164 23.7575 93.2164 23.9225 93.4514 24.0375C93.6864 24.1475 93.9514 24.2025 94.2464 24.2025C94.5414 24.2025 94.7789 24.1675 94.9589 24.0975C95.1439 24.0225 95.2989 23.9425 95.4239 23.8575C95.5489 23.7675 95.6564 23.6875 95.7464 23.6175C95.8414 23.5425 95.9464 23.505 96.0614 23.505C96.2114 23.505 96.3239 23.5625 96.3989 23.6775L96.9314 24.3525C96.7264 24.5925 96.5039 24.795 96.2639 24.96C96.0239 25.12 95.7739 25.25 95.5139 25.35C95.2589 25.445 94.9939 25.5125 94.7189 25.5525C94.4489 25.5925 94.1789 25.6125 93.9089 25.6125C93.4339 25.6125 92.9864 25.525 92.5664 25.35C92.1464 25.17 91.7789 24.91 91.4639 24.57C91.1489 24.23 90.8989 23.815 90.7139 23.325C90.5339 22.83 90.4439 22.2675 90.4439 21.6375C90.4439 21.0725 90.5239 20.55 90.6839 20.07C90.8489 19.585 91.0889 19.1675 91.4039 18.8175C91.7189 18.4625 92.1089 18.185 92.5739 17.985C93.0389 17.785 93.5739 17.685 94.1789 17.685C94.7539 17.685 95.2564 17.7775 95.6864 17.9625C96.1214 18.1475 96.5114 18.4125 96.8564 18.7575L96.3689 19.4325ZM102.69 18.2925C102.78 18.1475 102.903 18.03 103.058 17.94C103.213 17.85 103.378 17.805 103.553 17.805H105.008L103.215 20.6625C103.09 20.8625 102.963 21.025 102.833 21.15C102.703 21.27 102.545 21.365 102.36 21.435C102.61 21.51 102.815 21.6225 102.975 21.7725C103.135 21.9175 103.28 22.1025 103.41 22.3275L105.21 25.5H103.928C103.603 25.5 103.35 25.445 103.17 25.335C102.99 25.225 102.838 25.0675 102.713 24.8625L101.58 22.7325C101.48 22.5475 101.35 22.41 101.19 22.32C101.035 22.23 100.853 22.185 100.643 22.185H99.9452V25.5H98.0927V17.805H99.9452V20.9775H100.545C100.755 20.9775 100.923 20.94 101.048 20.865C101.178 20.785 101.288 20.665 101.378 20.505L102.69 18.2925ZM113.152 17.805V25.5H111.3V21.0075C111.3 20.8925 111.305 20.7675 111.315 20.6325C111.33 20.4925 111.347 20.3525 111.367 20.2125C111.267 20.4425 111.157 20.645 111.037 20.82C111.027 20.83 110.977 20.9 110.887 21.03C110.797 21.155 110.68 21.3175 110.535 21.5175C110.395 21.7175 110.235 21.945 110.055 22.2C109.875 22.45 109.692 22.705 109.507 22.965C109.072 23.58 108.58 24.275 108.03 25.05C107.96 25.155 107.867 25.2575 107.752 25.3575C107.642 25.4575 107.515 25.5075 107.37 25.5075H106.237V17.8125H108.09V22.305C108.09 22.42 108.082 22.5475 108.067 22.6875C108.057 22.8225 108.042 22.96 108.022 23.1C108.132 22.855 108.242 22.6525 108.352 22.4925C108.357 22.4825 108.405 22.415 108.495 22.29C108.585 22.165 108.7 22.0025 108.84 21.8025C108.985 21.6025 109.147 21.3775 109.327 21.1275C109.507 20.8725 109.69 20.6125 109.875 20.3475C110.31 19.7325 110.805 19.0375 111.36 18.2625C111.43 18.1525 111.522 18.05 111.637 17.955C111.752 17.855 111.882 17.805 112.027 17.805H113.152ZM121.582 19.1775H118.837V25.5H116.985V19.1775H114.247V17.805H121.582V19.1775ZM126.694 22.215C126.159 22.24 125.709 22.2875 125.344 22.3575C124.979 22.4225 124.686 22.5075 124.466 22.6125C124.246 22.7175 124.089 22.84 123.994 22.98C123.899 23.12 123.851 23.2725 123.851 23.4375C123.851 23.7625 123.946 23.995 124.136 24.135C124.331 24.275 124.584 24.345 124.894 24.345C125.274 24.345 125.601 24.2775 125.876 24.1425C126.156 24.0025 126.429 23.7925 126.694 23.5125V22.215ZM122.449 18.8775C123.334 18.0675 124.399 17.6625 125.644 17.6625C126.094 17.6625 126.496 17.7375 126.851 17.8875C127.206 18.0325 127.506 18.2375 127.751 18.5025C127.996 18.7625 128.181 19.075 128.306 19.44C128.436 19.805 128.501 20.205 128.501 20.64V25.5H127.661C127.486 25.5 127.351 25.475 127.256 25.425C127.161 25.37 127.086 25.2625 127.031 25.1025L126.866 24.5475C126.671 24.7225 126.481 24.8775 126.296 25.0125C126.111 25.1425 125.919 25.2525 125.719 25.3425C125.519 25.4325 125.304 25.5 125.074 25.545C124.849 25.595 124.599 25.62 124.324 25.62C123.999 25.62 123.699 25.5775 123.424 25.4925C123.149 25.4025 122.911 25.27 122.711 25.095C122.511 24.92 122.356 24.7025 122.246 24.4425C122.136 24.1825 122.081 23.88 122.081 23.535C122.081 23.34 122.114 23.1475 122.179 22.9575C122.244 22.7625 122.349 22.5775 122.494 22.4025C122.644 22.2275 122.836 22.0625 123.071 21.9075C123.306 21.7525 123.594 21.6175 123.934 21.5025C124.279 21.3875 124.679 21.295 125.134 21.225C125.589 21.15 126.109 21.105 126.694 21.09V20.64C126.694 20.125 126.584 19.745 126.364 19.5C126.144 19.25 125.826 19.125 125.411 19.125C125.111 19.125 124.861 19.16 124.661 19.23C124.466 19.3 124.294 19.38 124.144 19.47C123.994 19.555 123.856 19.6325 123.731 19.7025C123.611 19.7725 123.476 19.8075 123.326 19.8075C123.196 19.8075 123.086 19.775 122.996 19.71C122.906 19.64 122.834 19.56 122.779 19.47L122.449 18.8775ZM139.164 17.79V25.5H137.491V21.21C137.491 21.035 137.499 20.8375 137.514 20.6175C137.534 20.3975 137.564 20.1925 137.604 20.0025L135.339 24.1575C135.229 24.3725 135.054 24.48 134.814 24.48H134.619C134.379 24.48 134.204 24.3725 134.094 24.1575L131.799 19.98C131.834 20.17 131.861 20.3775 131.881 20.6025C131.906 20.8275 131.919 21.03 131.919 21.21V25.5H130.246V17.79H131.776C131.906 17.79 132.034 17.8175 132.159 17.8725C132.289 17.9275 132.396 18.0375 132.481 18.2025L134.296 21.4425C134.376 21.5925 134.451 21.7525 134.521 21.9225C134.591 22.0875 134.656 22.255 134.716 22.425C134.776 22.255 134.839 22.085 134.904 21.915C134.974 21.745 135.049 21.5875 135.129 21.4425L136.929 18.2025C137.019 18.0325 137.126 17.9225 137.251 17.8725C137.376 17.8175 137.504 17.79 137.634 17.79H139.164Z" fill="#0B1F33"></path> <path d="M81.1828 31.04V45.5H78.4828V39.18H71.6928V45.5H68.9928V31.04H71.6928V37.26H78.4828V31.04H81.1828ZM87.103 33.18V37.19H92.163V39.26H87.103V43.35H93.523V45.5H84.403V31.04H93.523V33.18H87.103ZM106.007 33.25H101.647V45.5H98.9569V33.25H94.5969V31.04H106.007V33.25Z" fill="#0B1F33"></path> </svg> 