<?xml version="1.0" encoding="UTF-8"?> <svg xmlns="http://www.w3.org/2000/svg" width="50" height="50" viewBox="0 0 50 50" fill="none"> <rect width="50" height="50" rx="10" fill="#FFA51D"></rect> <path d="M22.1321 19.6423L20.0117 17.5021L20.6834 16.8359L22.804 18.9752L22.1321 19.6423Z" fill="white"></path> <path d="M24.9233 19.4975H23.9766V15.1504H24.9233V19.4975Z" fill="white"></path> <path d="M26.774 19.2318L26.0859 18.5807L28.7685 15.7402L29.4563 16.3909L26.774 19.2318Z" fill="white"></path> <path d="M22.6973 21.8153L20.3758 22.2368L19.8397 19.9277L17.404 22.5426L16.9733 23.0051L16.0805 23.9641L15.6499 24.4259L14.7908 25.3483L14.36 25.8111L13.5155 26.718L13.0851 27.1793L12.1866 28.1443L11.7568 28.6057L10 30.4916L14.3874 34.5802L23.7958 24.4801L22.6973 21.8153Z" fill="white"></path> <path d="M38.4611 29.2069L38.0937 28.6926L37.3386 27.6374L36.9712 27.1238L36.2433 26.1055L35.876 25.592L35.1646 24.5971L34.7972 24.0833L34.0432 23.0294L33.6767 22.5158L32.9122 21.4477L32.5457 20.9349L31.4659 19.4258L28.2094 20.1274L28.3376 21.6633L26.0742 22.1964L35.1246 34.8494L39.9992 31.357L38.4611 29.2069Z" fill="white"></path> </svg> 