<?xml version="1.0" encoding="UTF-8"?> <svg xmlns="http://www.w3.org/2000/svg" width="50" height="50" viewBox="0 0 50 50" fill="none"> <rect width="50" height="50" rx="10" fill="#2DC36A"></rect> <path d="M39.2803 18.8711H39.2461V18.9738H39.2803V18.8711Z" fill="white"></path> <path d="M26.9948 29.9074L12.4453 15.3579L10.0002 17.803L24.5497 32.3525L26.9948 29.9074Z" fill="white"></path> <path d="M28.1701 31.0983L27.6133 30.5415L25.1682 32.9866L25.725 33.5434L28.1701 31.0983Z" fill="white"></path> <path d="M29.256 32.1965L28.6992 31.6396L26.2541 34.0847L26.8109 34.6415L29.256 32.1965Z" fill="white"></path> <path d="M29.1797 29.1764C29.1797 29.1764 29.5563 23.5958 33.9728 24.3833C38.3894 25.1707 38.3551 20.001 38.3551 20.001" stroke="white" stroke-width="2" stroke-miterlimit="10"></path> <path d="M30.8242 30.82C30.8242 30.82 31.2008 25.2394 35.6174 26.0268C40.0339 26.8485 39.9996 21.6445 39.9996 21.6445" stroke="white" stroke-width="2" stroke-miterlimit="10"></path> </svg> 