<?xml version="1.0" encoding="UTF-8"?> <svg xmlns="http://www.w3.org/2000/svg" width="50" height="50" viewBox="0 0 50 50" fill="none"> <rect width="50" height="50" rx="10" fill="#EE3F58"></rect> <path d="M27.1341 28.5783C27.0973 28.5472 27.0546 28.5236 27.0086 28.509C26.9627 28.4944 26.9142 28.4889 26.8662 28.493C26.8181 28.4971 26.7713 28.5106 26.7284 28.5328C26.6856 28.5549 26.6475 28.5853 26.6164 28.6222L24.2038 31.4824C24.1725 31.5195 24.1489 31.5624 24.1343 31.6086C24.1197 31.6549 24.1143 31.7035 24.1186 31.7519L24.8271 39.6654C24.8353 39.7567 24.8773 39.8417 24.9449 39.9036C25.0126 39.9655 25.1009 39.9999 25.1926 40C25.2036 40 25.2147 39.9995 25.2258 39.9986C25.2738 39.9943 25.3206 39.9805 25.3633 39.9582C25.4061 39.9358 25.444 39.9053 25.475 39.8682C25.5059 39.8312 25.5293 39.7885 25.5437 39.7424C25.5581 39.6964 25.5633 39.6479 25.559 39.5999L24.864 31.8391L27.178 29.0958C27.2408 29.0214 27.2715 28.925 27.2632 28.828C27.255 28.7309 27.2086 28.6411 27.1341 28.5783Z" fill="white"></path> <path d="M23.4458 29.946C23.406 29.9188 23.3612 29.8996 23.3139 29.8897C23.2667 29.8798 23.218 29.8792 23.1706 29.8881C23.1232 29.897 23.078 29.9152 23.0376 29.9416C22.9972 29.9679 22.9623 30.002 22.9351 30.0418L20.6368 33.4017C20.6102 33.4406 20.5913 33.4842 20.5812 33.5303L19.282 39.4355C19.2611 39.5307 19.2788 39.6303 19.3313 39.7124C19.3838 39.7945 19.4668 39.8524 19.5619 39.8733C19.6571 39.8942 19.7567 39.8765 19.8388 39.824C19.9209 39.7715 19.9788 39.6885 19.9997 39.5934L21.2835 33.7578L23.5416 30.4567C23.5689 30.4169 23.588 30.3721 23.5979 30.3248C23.6078 30.2776 23.6084 30.2289 23.5995 30.1815C23.5906 30.1341 23.5724 30.0889 23.5461 30.0485C23.5197 30.0081 23.4856 29.9732 23.4458 29.946Z" fill="white"></path> <path d="M29.8802 30.3991C29.8122 30.3293 29.7193 30.2894 29.6218 30.2881C29.5244 30.2868 29.4305 30.3243 29.3607 30.3923L27.2985 32.4007C27.2533 32.4448 27.2201 32.4999 27.2023 32.5606C27.1846 32.6212 27.1827 32.6854 27.197 32.747L28.7324 39.3609C28.7432 39.4081 28.7632 39.4526 28.7912 39.492C28.8192 39.5314 28.8547 39.5649 28.8957 39.5905C28.9367 39.6161 28.9824 39.6334 29.0301 39.6414C29.0778 39.6493 29.1265 39.6478 29.1736 39.6369C29.2207 39.6259 29.2652 39.6058 29.3045 39.5777C29.3438 39.5495 29.3772 39.5139 29.4027 39.4728C29.4282 39.4317 29.4453 39.386 29.4531 39.3383C29.4609 39.2906 29.4592 39.2418 29.4482 39.1947L27.9595 32.7825L29.8732 30.9186C29.943 30.8506 29.983 30.7577 29.9843 30.6603C29.9856 30.5629 29.9481 30.4689 29.8802 30.3991Z" fill="white"></path> <path d="M37.8465 35.6414C37.8651 35.686 37.8924 35.7265 37.9267 35.7606C37.961 35.7947 38.0017 35.8216 38.0464 35.84C38.0912 35.8583 38.1391 35.8676 38.1875 35.8673C38.2358 35.8671 38.2836 35.8573 38.3282 35.8385C38.3727 35.8197 38.4132 35.7924 38.4471 35.7579C38.4811 35.7235 38.5079 35.6827 38.5261 35.6379C38.5442 35.5931 38.5534 35.5452 38.553 35.4968C38.5526 35.4485 38.5426 35.4007 38.5237 35.3562L37.4077 32.7061L36.7305 32.991L37.8465 35.6414Z" fill="white"></path> <path d="M11.5452 16.6145C11.3415 17.2137 11.4612 17.8353 11.9114 18.5145C11.9761 18.5979 12.8054 19.6371 14.8058 20.8475C16.7268 22.0103 20.1496 23.5724 25.5469 24.4121C25.5537 24.4132 25.5602 24.4149 25.5669 24.4163C26.2464 24.3791 26.9275 24.3791 27.6071 24.4163L26.9054 24.0089C24.7165 22.8251 22.5907 21.5282 20.5367 20.1233C17.3332 17.9102 15.242 15.966 14.2863 14.3184C13.6165 14.5951 11.9623 15.3879 11.5452 16.6145Z" fill="white"></path> <path d="M15.1688 10.9649C15.1638 10.9695 15.1578 10.9748 15.1526 10.9791C14.5995 11.4378 14.3627 11.9703 14.4288 12.6071C14.4767 12.9789 14.5908 13.3391 14.7655 13.6707C14.7741 13.685 14.7818 13.6998 14.7883 13.7151C15.59 15.2826 17.6837 17.2594 20.9484 19.5154C22.9821 20.9067 25.0869 22.191 27.2544 23.363C27.2588 23.3653 27.2631 23.3677 27.2674 23.3701L27.7547 23.653L16.0027 10.4321C15.7023 10.5719 15.4219 10.7511 15.1688 10.9649Z" fill="white"></path> <path d="M32.4687 26.4492L31.5537 26.748C30.9149 26.957 30.3705 27.3849 30.0167 27.9562L28.8789 29.7957C30.1931 30.5282 31.4742 30.8178 32.6671 30.6392C33.4586 30.5228 34.2048 30.1975 34.8287 29.6968C34.5144 28.2983 33.7237 27.2133 32.4687 26.4492Z" fill="white"></path> <path d="M23.4794 13.5138C21.7432 11.3258 19.9685 10.1479 18.2046 10.0126C18.0927 10.004 17.983 10 17.876 10C17.4915 10.0001 17.1087 10.0524 16.7383 10.1554L28.6329 23.5367C27.5978 19.5119 23.663 13.7796 23.4794 13.5138Z" fill="white"></path> <path d="M24.7255 25.2245L13.5273 31.8116C16.7079 32.4321 19.7456 31.4626 21.8049 30.4867C24.2549 29.3262 25.882 27.9138 25.8982 27.8996C25.9673 27.8392 26.0566 27.8068 26.1484 27.8088C26.2402 27.8109 26.3279 27.8473 26.3942 27.9108C26.9677 28.4667 27.5902 28.9698 28.2541 29.414L29.3948 27.57C29.8399 26.851 30.5249 26.3126 31.3285 26.0498L31.5457 25.9788C30.8635 25.6986 30.153 25.4933 29.4265 25.3665C27.2393 24.9647 25.1334 25.1769 24.7255 25.2245Z" fill="white"></path> <path d="M36.1186 30.0791C35.8525 30.0791 35.5925 30.158 35.3712 30.3058C35.15 30.4536 34.9776 30.6637 34.8758 30.9095C34.774 31.1553 34.7474 31.4257 34.7993 31.6866C34.8512 31.9476 34.9793 32.1872 35.1674 32.3754C35.3555 32.5635 35.5952 32.6916 35.8561 32.7435C36.1171 32.7954 36.3875 32.7688 36.6333 32.667C36.8791 32.5651 37.0892 32.3927 37.237 32.1715C37.3848 31.9503 37.4637 31.6903 37.4637 31.4242C37.4633 31.0676 37.3215 30.7257 37.0693 30.4735C36.8171 30.2213 36.4752 30.0795 36.1186 30.0791Z" fill="white"></path> </svg> 