<?xml version="1.0" encoding="UTF-8"?> <svg xmlns="http://www.w3.org/2000/svg" width="50" height="50" viewBox="0 0 50 50" fill="none"> <rect width="50" height="50" rx="10" fill="#5289F3"></rect> <path d="M39.25 10H10.75C10.5511 10 10.3603 10.079 10.2197 10.2197C10.079 10.3603 10 10.5511 10 10.75V39.25C10 39.4489 10.079 39.6397 10.2197 39.7803C10.3603 39.921 10.5511 40 10.75 40H39.25C39.4489 40 39.6397 39.921 39.7803 39.7803C39.921 39.6397 40 39.4489 40 39.25V10.75C40 10.5511 39.921 10.3603 39.7803 10.2197C39.6397 10.079 39.4489 10 39.25 10ZM21.0625 29.26V21.4075H29.38V29.26H21.0625ZM29.38 30.76V38.5H21.0625V30.76H29.38ZM11.5 21.4075H19.5625V29.26H11.5V21.4075ZM21.0625 19.9075V11.5H29.38V19.9075H21.0625ZM30.88 21.4075H38.5V29.26H30.88V21.4075ZM38.5 19.9075H30.88V11.5H38.5V19.9075ZM19.5625 11.5V19.9075H11.5V11.5H19.5625ZM11.5 30.76H19.5625V38.5H11.5V30.76ZM30.88 38.5V30.76H38.5V38.5H30.88Z" fill="white"></path> </svg> 