<?xml version="1.0" encoding="UTF-8"?> <svg xmlns="http://www.w3.org/2000/svg" width="50" height="50" viewBox="0 0 50 50" fill="none"> <rect width="50" height="50" rx="10" fill="#5289F3"></rect> <path fill-rule="evenodd" clip-rule="evenodd" d="M18.1549 36.6148C11.2677 30.6615 23.9914 24.8249 21.3066 18.2879C19.7891 14.786 15.2366 13.6187 12.435 16.07C10.684 17.4708 11.7346 19.2218 13.4856 18.0545C15.47 16.4202 18.0381 17.2374 18.972 19.4553C20.3728 22.8405 14.7696 28.2101 13.9525 31.3619C13.0187 34.5136 15.3533 40 19.6724 40H28.3105C28.3105 38.9494 27.8436 38.4825 26.9097 38.3658C29.2443 36.2646 29.5945 33.6965 27.0264 30.5447C29.828 32.8794 29.9447 36.4981 28.1938 38.249C29.0109 38.716 29.1276 39.4163 29.2443 40H32.6296C32.2794 39.5331 31.9292 39.0661 31.3455 38.8327C30.9953 32.9961 34.2638 31.2451 35.3144 27.8599C36.0148 25.1751 34.9642 22.3735 34.1471 20.0389C35.4311 19.1051 37.0654 20.7393 38.4661 18.1712C37.2988 16.3035 37.8825 13.7354 35.4311 13.035C34.9642 11.8677 35.5478 11.0506 36.1315 10C24.4584 13.9689 34.3805 16.4202 21.4233 25.8755C17.1043 29.0272 18.0381 32.5292 18.1549 36.6148ZM35.4311 15.0195C36.1315 15.1362 36.365 15.1362 36.5984 15.8366C35.898 15.8366 35.6646 15.7198 35.4311 15.0195Z" fill="white"></path> </svg> 