<?xml version="1.0" encoding="UTF-8"?> <svg xmlns="http://www.w3.org/2000/svg" width="50" height="50" viewBox="0 0 50 50" fill="none"> <rect width="50" height="50" rx="10" fill="#FFA51D"></rect> <path d="M32.9687 23H16.9688V31C16.9688 34 17.9687 35 20.9687 35H28.9688C31.9688 35 32.9687 34 32.9687 31V23Z" stroke="white" stroke-width="1.5" stroke-miterlimit="10" stroke-linecap="round" stroke-linejoin="round"></path> <path d="M34.5 20V21C34.5 22.1 33.97 23 32.5 23H17.5C15.97 23 15.5 22.1 15.5 21V20C15.5 18.9 15.97 18 17.5 18H32.5C33.97 18 34.5 18.9 34.5 20Z" stroke="white" stroke-width="1.5" stroke-miterlimit="10" stroke-linecap="round" stroke-linejoin="round"></path> <path d="M24.6388 17.9999H19.1188C18.7788 17.6299 18.7888 17.0599 19.1488 16.6999L20.5688 15.2799C20.9388 14.9099 21.5488 14.9099 21.9188 15.2799L24.6388 17.9999Z" stroke="white" stroke-width="1.5" stroke-miterlimit="10" stroke-linecap="round" stroke-linejoin="round"></path> <path d="M30.8716 17.9999H25.3516L28.0716 15.2799C28.4416 14.9099 29.0516 14.9099 29.4216 15.2799L30.8416 16.6999C31.2016 17.0599 31.2116 17.6299 30.8716 17.9999Z" stroke="white" stroke-width="1.5" stroke-miterlimit="10" stroke-linecap="round" stroke-linejoin="round"></path> <path d="M21.9414 23V28.14C21.9414 28.94 22.8214 29.41 23.4914 28.98L24.4314 28.36C24.7714 28.14 25.2014 28.14 25.5314 28.36L26.4214 28.96C27.0814 29.4 27.9714 28.93 27.9714 28.13V23H21.9414Z" stroke="white" stroke-width="1.5" stroke-miterlimit="10" stroke-linecap="round" stroke-linejoin="round"></path> </svg> 