<?xml version="1.0" encoding="UTF-8"?> <svg xmlns="http://www.w3.org/2000/svg" width="105" height="20" viewBox="0 0 105 20" fill="none"> <g clip-path="url(#clip0_417_12254)"> <path d="M9.60193 0.892461C9.78305 0.5129 10.3233 0.5129 10.5044 0.892461L12.8318 5.76978C12.9047 5.92254 13.0499 6.02805 13.2177 6.05016L18.5755 6.75642C18.9925 6.81138 19.1594 7.32522 18.8544 7.61477L14.935 11.3354C14.8122 11.4519 14.7567 11.6226 14.7876 11.789L15.7715 17.1029C15.8481 17.5164 15.411 17.834 15.0414 17.6333L10.2917 15.0555C10.1429 14.9747 9.96344 14.9747 9.81468 15.0555L5.06501 17.6333C4.69538 17.834 4.25828 17.5164 4.33486 17.1029L5.31882 11.789C5.34963 11.6226 5.29416 11.4519 5.17141 11.3354L1.25199 7.61477C0.946975 7.32522 1.11393 6.81138 1.53088 6.75642L6.88868 6.05016C7.05648 6.02805 7.2017 5.92254 7.27459 5.76978L9.60193 0.892461Z" fill="#FFDD2D"></path> <path d="M30.8246 0.892461C31.0057 0.5129 31.546 0.5129 31.7271 0.892461L34.0544 5.76978C34.1273 5.92254 34.2726 6.02805 34.4404 6.05016L39.7982 6.75642C40.2151 6.81138 40.3821 7.32522 40.077 7.61477L36.1576 11.3354C36.0349 11.4519 35.9794 11.6226 36.0102 11.789L36.9942 17.1029C37.0708 17.5164 36.6337 17.834 36.264 17.6333L31.5144 15.0555C31.3656 14.9747 31.1861 14.9747 31.0373 15.0555L26.2877 17.6333C25.918 17.834 25.4809 17.5164 25.5575 17.1029L26.5415 11.789C26.5723 11.6226 26.5168 11.4519 26.3941 11.3354L22.4746 7.61477C22.1696 7.32522 22.3366 6.81138 22.7535 6.75642L28.1113 6.05016C28.2791 6.02805 28.4244 5.92254 28.4972 5.76978L30.8246 0.892461Z" fill="#FFDD2D"></path> <path d="M52.0472 0.892461C52.2284 0.5129 52.7686 0.5129 52.9498 0.892461L55.2771 5.76978C55.35 5.92254 55.4952 6.02805 55.663 6.05016L61.0208 6.75642C61.4378 6.81138 61.6047 7.32522 61.2997 7.61477L57.3803 11.3354C57.2575 11.4519 57.2021 11.6226 57.2329 11.789L58.2168 17.1029C58.2934 17.5164 57.8563 17.834 57.4867 17.6333L52.737 15.0555C52.5883 14.9747 52.4088 14.9747 52.26 15.0555L47.5103 17.6333C47.1407 17.834 46.7036 17.5164 46.7802 17.1029L47.7641 11.789C47.7949 11.6226 47.7395 11.4519 47.6167 11.3354L43.6973 7.61477C43.3923 7.32522 43.5592 6.81138 43.9762 6.75642L49.334 6.05016C49.5018 6.02805 49.647 5.92254 49.7199 5.76978L52.0472 0.892461Z" fill="#FFDD2D"></path> <path d="M73.2738 0.892461C73.4549 0.5129 73.9952 0.5129 74.1763 0.892461L76.5037 5.76978C76.5766 5.92254 76.7218 6.02805 76.8896 6.05016L82.2474 6.75642C82.6643 6.81138 82.8313 7.32522 82.5263 7.61477L78.6068 11.3354C78.4841 11.4519 78.4286 11.6226 78.4594 11.789L79.4434 17.1029C79.52 17.5164 79.0829 17.834 78.7133 17.6333L73.9636 15.0555C73.8148 14.9747 73.6353 14.9747 73.4866 15.0555L68.7369 17.6333C68.3673 17.834 67.9302 17.5164 68.0067 17.1029L68.9907 11.789C69.0215 11.6226 68.966 11.4519 68.8433 11.3354L64.9239 7.61477C64.6188 7.32522 64.7858 6.81138 65.2028 6.75642L70.5606 6.05016C70.7284 6.02805 70.8736 5.92254 70.9465 5.76978L73.2738 0.892461Z" fill="#FFDD2D"></path> <mask id="mask0_417_12254" style="mask-type:alpha" maskUnits="userSpaceOnUse" x="85" y="0" width="19" height="18"> <path d="M94.4965 0.892461C94.6776 0.5129 95.2179 0.5129 95.399 0.892461L97.7263 5.76978C97.7992 5.92254 97.9444 6.02805 98.1122 6.05016L103.47 6.75642C103.887 6.81138 104.054 7.32522 103.749 7.61477L99.8295 11.3354C99.7067 11.4519 99.6513 11.6226 99.6821 11.789L100.666 17.1029C100.743 17.5164 100.306 17.834 99.9359 17.6333L95.1862 15.0555C95.0375 14.9747 94.858 14.9747 94.7092 15.0555L89.9595 17.6333C89.5899 17.834 89.1528 17.5164 89.2294 17.1029L90.2133 11.789C90.2442 11.6226 90.1887 11.4519 90.0659 11.3354L86.1465 7.61477C85.8415 7.32522 86.0085 6.81138 86.4254 6.75642L91.7832 6.05016C91.951 6.02805 92.0962 5.92254 92.1691 5.76978L94.4965 0.892461Z" fill="white"></path> </mask> <g mask="url(#mask0_417_12254)"> <rect x="86" width="18" height="19" fill="#FFDD2D"></rect> </g> </g> <defs> <clipPath id="clip0_417_12254"> <rect width="105" height="20" fill="white"></rect> </clipPath> </defs> </svg> 