<?xml version="1.0" encoding="UTF-8"?> <svg xmlns="http://www.w3.org/2000/svg" width="50" height="50" viewBox="0 0 50 50" fill="none"> <rect width="50" height="50" rx="10" fill="#EE3F58"></rect> <path d="M23 17.5V31C23 32.08 22.56 33.07 21.86 33.79L21.82 33.83C21.73 33.92 21.63 34.01 21.54 34.08C21.24 34.34 20.9 34.54 20.55 34.68C20.44 34.73 20.33 34.77 20.22 34.81C19.83 34.94 19.41 35 19 35C18.73 35 18.46 34.97 18.2 34.92C18.07 34.89 17.94 34.86 17.81 34.82C17.65 34.77 17.5 34.72 17.35 34.65C17.35 34.64 17.35 34.64 17.34 34.65C17.06 34.51 16.79 34.35 16.54 34.16L16.53 34.15C16.4 34.05 16.28 33.95 16.17 33.83C16.06 33.71 15.95 33.59 15.84 33.46C15.65 33.21 15.49 32.94 15.35 32.66C15.36 32.65 15.36 32.65 15.35 32.65C15.35 32.65 15.35 32.64 15.34 32.63C15.28 32.49 15.23 32.34 15.18 32.19C15.14 32.06 15.11 31.93 15.08 31.8C15.03 31.54 15 31.27 15 31V17.5C15 16 16 15 17.5 15H20.5C22 15 23 16 23 17.5Z" stroke="white" stroke-width="1.5" stroke-linecap="round" stroke-linejoin="round"></path> <path d="M35 29.5V32.5C35 34 34 35 32.5 35H19C19.41 35 19.83 34.94 20.22 34.81C20.33 34.77 20.44 34.73 20.55 34.68C20.9 34.54 21.24 34.34 21.54 34.08C21.63 34.01 21.73 33.92 21.82 33.83L21.86 33.79L28.66 27H32.5C34 27 35 28 35 29.5Z" stroke="white" stroke-width="1.5" stroke-linecap="round" stroke-linejoin="round"></path> <path d="M17.8097 34.8199C17.2097 34.6399 16.6397 34.3099 16.1697 33.8299C15.6897 33.3599 15.3597 32.7899 15.1797 32.1899C15.5697 33.4399 16.5597 34.4299 17.8097 34.8199Z" stroke="white" stroke-width="1.5" stroke-linecap="round" stroke-linejoin="round"></path> <path d="M31.3694 24.2899L28.6594 27L21.8594 33.7899C22.5594 33.0699 22.9994 32.08 22.9994 31V21.34L25.7094 18.63C26.7694 17.57 28.1894 17.57 29.2494 18.63L31.3694 20.75C32.4294 21.81 32.4294 23.2299 31.3694 24.2899Z" stroke="white" stroke-width="1.5" stroke-linecap="round" stroke-linejoin="round"></path> <path d="M19 32C19.5523 32 20 31.5523 20 31C20 30.4477 19.5523 30 19 30C18.4477 30 18 30.4477 18 31C18 31.5523 18.4477 32 19 32Z" stroke="white" stroke-width="1.5" stroke-linecap="round" stroke-linejoin="round"></path> </svg> 