<?xml version="1.0" encoding="UTF-8"?> <svg xmlns="http://www.w3.org/2000/svg" width="50" height="50" viewBox="0 0 50 50" fill="none"> <rect width="50" height="50" rx="10" fill="#2DC36A"></rect> <path d="M23.5 32.9V17.1C23.5 15.6 22.86 15 21.27 15H17.23C15.64 15 15 15.6 15 17.1V32.9C15 34.4 15.64 35 17.23 35H21.27C22.86 35 23.5 34.4 23.5 32.9Z" stroke="white" stroke-width="1.5" stroke-linecap="round" stroke-linejoin="round"></path> <path d="M35 23.9V17.1C35 15.6 34.36 15 32.77 15H28.73C27.14 15 26.5 15.6 26.5 17.1V23.9C26.5 25.4 27.14 26 28.73 26H32.77C34.36 26 35 25.4 35 23.9Z" stroke="white" stroke-width="1.5" stroke-linecap="round" stroke-linejoin="round"></path> <path d="M35 32.9V31.1C35 29.6 34.36 29 32.77 29H28.73C27.14 29 26.5 29.6 26.5 31.1V32.9C26.5 34.4 27.14 35 28.73 35H32.77C34.36 35 35 34.4 35 32.9Z" stroke="white" stroke-width="1.5" stroke-linecap="round" stroke-linejoin="round"></path> </svg> 